PathFileType	4	(X/Y/Z)	Patient4_TMGait_0pt3_03_right_25.trc.trc
DataRate	CameraRate	NumFrames	NumMarkers	Units	OrigDataRate	OrigDataStartFrame	OrigNumFrames
53.846153846154	53.846153846154	4	33	mm	53.846153846154	53	       141
Frame#	Time	Sacral			L.Shoulder			Chest			R.Shoulder			Neck			R.ASIS			L.ASIS			R.Thigh.Superior			R.Thigh.Lateral			R.Thigh.Inferior			R.Patella			L.Thigh.Superior			L.Thigh.Lateral			L.Thigh.Inferior			L.Patella			L.Shank.Superior			L.Shank.Lateral			L.Shank.Inferior			R.Shank.Superior			R.Shank.Lateral			R.Shank.Inferior			R.Heel			R.Midfoot.Superior			R.Midfoot.Lateral			R.Toe			L.Heel			L.Midfoot.Lateral			L.Midfoot.Superior			L.Toe			L.Elbow			L.Wrist			R.Elbow			R.Wrist			
		X1	Y1	Z1	X2	Y2	Z2	X3	Y3	Z3	X4	Y4	Z4	X5	Y5	Z5	X6	Y6	Z6	X7	Y7	Z7	X8	Y8	Z8	X9	Y9	Z9	X10	Y10	Z10	X11	Y11	Z11	X12	Y12	Z12	X13	Y13	Z13	X14	Y14	Z14	X15	Y15	Z15	X16	Y16	Z16	X17	Y17	Z17	X18	Y18	Z18	X19	Y19	Z19	X20	Y20	Z20	X21	Y21	Z21	X22	Y22	Z22	X23	Y23	Z23	X24	Y24	Z24	X25	Y25	Z25	X26	Y26	Z26	X27	Y27	Z27	X28	Y28	Z28	X29	Y29	Z29	X30	Y30	Z30	X31	Y31	Z31	X32	Y32	Z32	X33	Y33	Z33	

53	47.625714285714	709.553894940938	996.348504004855	592.729750453536	883.914943455479	1417.810747496941	387.541848582395	990.951057169574	1353.335395388052	547.115937822284	916.595947509734	1431.776256803783	722.412944257204	870.614680374304	1485.404620421025	542.621401293259	947.659473303976	932.927507675290	695.010790128182	914.140478358227	952.819806536546	422.820089065545	995.720630538040	735.323621371382	651.690655963692	922.570403129586	618.692752914112	707.730576502801	995.166312262840	573.563220506215	618.665516071568	998.535859736143	480.249833643604	618.878026588591	1001.105539230677	769.309780773110	455.245045951488	957.210616868295	641.551609967327	378.031098135568	1057.613588810463	578.281662795006	443.671655807059	1068.541169761833	488.708689016887	434.117239758508	1001.262250450345	424.163543633470	419.704240370561	860.581484310449	384.119571757946	366.461939748954	848.853832048036	251.406994213809	411.538926646661	957.885542260400	392.557152441496	626.228416695938	881.467441830845	295.047286812324	692.286461020654	902.544961928392	199.660113411165	623.255965843319	747.417736859038	43.662086068911	604.785023958159	921.971335798690	96.864487821521	628.609490160821	835.292930661100	37.345199531265	673.478322782051	1042.546811790915	43.328468659432	649.485036541698	659.500200588025	179.982655825736	443.337914385247	718.179386367053	144.034614088377	359.584213709567	823.014908762724	153.144977520942	382.628797740319	903.547077634692	46.637117898493	343.478257647094	847.125090773331	1061.369335050329	284.088198416910	898.083616015385	805.819120157437	282.511161990179	955.651304376797	1099.518704333243	875.792452544098	1184.182821001906	978.808731199102	887.984595497874	
54	47.644285714286	708.108014999649	995.598634726099	595.625360802621	880.181952643289	1416.594500062842	388.018245138992	989.415111051156	1352.368720325864	546.183426943890	917.632179168961	1431.157838942541	722.423377307715	869.236584094386	1484.534693397559	542.894931424795	947.149068762648	932.119939949261	695.376218652199	910.791051427651	952.180314695259	423.485293298706	994.632034291083	734.316350455346	651.422745756435	921.903189479742	617.558827358773	707.767346748545	993.755949379615	572.533149901332	618.019131908702	996.905147785753	478.914860812544	618.052176495889	1000.262309033657	771.807282485890	456.541747848910	959.028137681904	643.450165294246	379.009811402758	1060.389309080343	582.128446262830	444.921363308082	1073.758559293694	493.320581237151	434.951563702845	1009.330134681663	427.076391189553	419.954229962173	870.559422991327	380.644364194386	367.962163839009	866.468677377342	247.214799382183	411.706295028934	955.407833163519	391.386110886172	625.639996948116	878.453015840105	294.488787701375	692.036505929876	898.170835869322	198.988463230097	622.960708233321	741.837475434677	43.680547520284	604.868634222790	916.384037675893	96.781238386258	628.575679751007	829.714657608016	37.335883572010	673.558395372799	1036.974910457258	43.208401015020	649.495585274349	682.200677391046	165.363656887342	445.373158809832	741.408362243862	134.003088332654	360.179179739068	845.516576990852	148.498071851446	382.007294202354	931.052264304520	47.567077829038	340.083521607494	832.920457180267	1061.465332210973	285.108544773788	872.083572859630	804.003503764092	283.266021494154	969.776954473486	1100.790820425165	874.966694083747	1205.531718768700	995.136704809632	882.814984532359	
55	47.662857142857	706.657306770487	995.097145796540	598.204947653298	876.626924638691	1415.589868381559	388.394962296717	987.996235450055	1351.515985690736	545.114096733293	918.796865001375	1430.696183098649	722.232017002195	867.986530201306	1483.804009429168	543.049150380023	946.576869344934	931.347362222877	695.424355315644	907.490696821466	951.675074275530	423.828737196428	993.280193439582	733.325367888615	650.943547058877	920.930532314491	616.551004707859	707.715011569833	992.014187937007	571.542490840497	617.314095805105	994.910585177884	477.678823490075	617.244122461087	998.718808278004	773.850992698558	457.202822384940	959.459693965008	645.067311663830	379.480570848799	1061.578976716775	585.383825893802	445.526688627859	1077.264205397929	497.684840297623	435.225587019119	1016.219217281428	429.801768411678	419.772356775330	880.275571602466	375.876450018469	368.771829622755	884.804253893541	242.181076989805	411.479409838977	952.641098790621	390.316058380982	625.052433560651	875.231607395931	293.990075862177	691.801848897443	893.690870549021	198.372367087444	622.684691569581	736.267446810191	43.721572215802	604.946917678166	910.793821318447	96.693425868938	628.543841261029	824.144367187816	37.335907652201	673.632963980546	1031.405138506029	43.050534003845	649.511417585037	706.719895365590	148.945373596230	446.733141368352	766.720231634036	122.222226859917	360.435035977648	869.704678256498	142.858582571214	381.229708819624	960.770422213912	48.226284706864	337.269990437043	818.767382870056	1062.159348502009	286.106768437449	847.161365805077	803.442036858955	284.696484031872	984.099998389603	1102.925664676852	873.811848035234	1226.099827469390	1012.980826466434	876.923771698868	
56	47.681428571429	705.226725863444	994.873513373876	600.462534684992	873.247429762788	1414.848999862467	388.668003907360	986.693573156691	1350.823859373848	543.902693441481	920.079835323916	1430.417707791252	721.839087780122	866.867854393374	1483.250687725926	543.101442518363	945.961559510058	930.647180300368	695.151657617995	904.263359001343	951.338706874356	423.848433073973	991.642696722906	732.366498088677	650.267040818196	919.596364826322	615.702435566539	707.586966457505	989.872361409202	570.605866194215	616.570003421125	992.462850227357	476.565684427950	616.472882266990	996.534806785686	775.425811528129	457.269313017237	958.614056820346	646.376802331470	379.434145441033	1061.281176174565	587.996164556786	445.521935147548	1079.133353145527	501.737204351266	434.978145025306	1021.916448455027	432.350625180356	419.199468718024	889.784144797569	370.145612171407	368.828981112231	903.581261023229	236.771923188859	410.867538598173	949.513782157969	389.371561525160	624.487613393437	871.738674588179	293.562106688653	691.593909117944	889.072387554931	197.827792291471	622.438343314850	730.697949263250	43.777797751358	605.020925785040	905.194539642235	96.605817232070	628.515253001267	818.575072692591	37.341943269246	673.702104709128	1025.830116086458	42.872689418258	649.532411975095	732.686411244623	131.754174970194	447.317440670400	793.723603617523	109.512395790771	360.325173595135	895.156729316423	136.749591346082	380.333598767369	991.983562719661	48.842902228076	335.224443464748	804.846278110683	1063.459156521870	287.159841403863	823.503088224862	803.990152456021	286.781759804135	998.527035477773	1105.970474669885	872.364871046444	1245.672611909547	1032.195516224688	870.396798963738	
